#N canvas 88 170 625 506 12;
#X obj 118 188 else/canvas.pos;
#X obj 118 100 loadbang;
#X obj 118 401 s, f 5;
#X obj 100 100 cnv 13 13 13 empty empty c 3 6 0 11 #bbbbbb #ffffff 0;
#X msg 118 334 center \$1 \$2;
#X obj 118 220 unpack;
#X obj 118 244 change;
#X obj 168 244 change;
#X obj 118 310 pack;
#X obj 168 268 t b f;
#X obj 118 140 t b b;
#X obj 118 164 metro 20;
#X obj 349 122 iemguts/canvasposition;
#X obj 183 99 savestate;
#X obj 183 122 manage_childpreset;
#X obj 327 122 preset/preset_to_parent;
#X obj 150 377 else/dollsym 1 \\\$0-nodereceiver;
#X connect 0 0 5 0;
#X connect 1 0 10 0;
#X connect 4 0 2 0;
#X connect 5 0 6 0;
#X connect 5 1 7 0;
#X connect 6 0 8 0;
#X connect 7 0 9 0;
#X connect 8 0 4 0;
#X connect 9 0 8 0;
#X connect 9 1 8 1;
#X connect 10 0 11 0;
#X connect 10 1 16 0;
#X connect 11 0 0 0;
#X connect 12 0 15 1;
#X connect 13 0 14 0;
#X connect 13 1 14 1;
#X connect 14 0 13 0;
#X connect 14 1 15 0;
#X connect 15 0 14 2;
#X connect 15 1 12 0;
#X connect 16 0 2 1;
#X coords 0 -1 1 1 13 13 2 100 100;
