#N canvas 88 170 571 483 12;
#X declare -lib iemguts;
#X obj 217 54 loadbang;
#X obj 217 413 s, f 5;
#X obj 50 60 cnv 11 11 11 empty \$0-canvas C 3 6 0 9 #808080 #ffffff 0;
#X obj 217 174 unpack;
#X obj 217 198 change;
#X obj 267 198 change;
#X obj 217 264 pack;
#X obj 267 222 t b f;
#X obj 217 118 metro 20;
#X obj 410 170 pdcontrol;
#X msg 410 146 args;
#X obj 410 194 list_iterate;
#X obj 410 242 checksum;
#X obj 410 218 route symbol;
#X obj 217 146 iemguts/canvasposition;
#X obj 51 122 savestate;
#X obj 51 146 manage_childpreset;
#X obj 197 146 preset/preset_to_parent;
#X obj 357 54 declare -lib iemguts;
#X obj 250 353 iemguts/canvasdollarzero 1;
#X obj 217 94 t b b b, f 10;
#N canvas 398 352 339 562 setcolor 0;
#X obj 54 393 rgb2hex;
#X msg 54 152 0 1 2;
#X obj 54 209 shuffle;
#X obj 54 233 unpack f f f;
#N canvas 151 471 450 387 col 0;
#X obj 40 36 inlet;
#X obj 151 36 inlet;
#X obj 40 125 f;
#X obj 40 317 outlet;
#X obj 40 61 sel 1;
#X obj 72 125 - 1;
#X text 100 126 values of -1 or 1;
#X obj 72 149 t f b f;
#X obj 95 197 *;
#X obj 72 221 * 127;
#X obj 72 269 + 127;
#X text 81 62 0 \, 2 are mapped to around 0 \, 255;
#X obj 95 173 random 64;
#X obj 72 245 -;
#X obj 253 125 loadbang;
#X msg 253 149 seed 1;
#X connect 0 0 4 0;
#X connect 1 0 2 1;
#X connect 2 0 3 0;
#X connect 4 0 2 0;
#X connect 4 1 5 0;
#X connect 5 0 7 0;
#X connect 7 0 9 0;
#X connect 7 1 12 0;
#X connect 7 2 8 1;
#X connect 8 0 13 1;
#X connect 9 0 13 0;
#X connect 10 0 3 0;
#X connect 12 0 8 0;
#X connect 13 0 10 0;
#X connect 14 0 15 0;
#X connect 15 0 12 0;
#X restore 54 273 pd col;
#N canvas 149 470 451 383 col 0;
#X obj 40 36 inlet;
#X obj 151 36 inlet;
#X obj 40 125 f;
#X obj 40 317 outlet;
#X obj 40 61 sel 1;
#X obj 72 125 - 1;
#X text 100 126 values of -1 or 1;
#X obj 72 149 t f b f;
#X obj 95 197 *;
#X obj 72 221 * 127;
#X obj 72 269 + 127;
#X text 81 62 0 \, 2 are mapped to around 0 \, 255;
#X obj 95 173 random 64;
#X obj 72 245 -;
#X obj 253 125 loadbang;
#X msg 253 149 seed 1;
#X connect 0 0 4 0;
#X connect 1 0 2 1;
#X connect 2 0 3 0;
#X connect 4 0 2 0;
#X connect 4 1 5 0;
#X connect 5 0 7 0;
#X connect 7 0 9 0;
#X connect 7 1 12 0;
#X connect 7 2 8 1;
#X connect 8 0 13 1;
#X connect 9 0 13 0;
#X connect 10 0 3 0;
#X connect 12 0 8 0;
#X connect 13 0 10 0;
#X connect 14 0 15 0;
#X connect 15 0 12 0;
#X restore 105 273 pd col;
#N canvas 151 466 396 431 col 0;
#X obj 40 36 inlet;
#X obj 151 36 inlet;
#X obj 40 125 f;
#X obj 40 317 outlet;
#X obj 40 61 sel 1;
#X obj 72 125 - 1;
#X text 100 126 values of -1 or 1;
#X obj 72 149 t f b f;
#X obj 95 197 *;
#X obj 72 221 * 127;
#X obj 72 269 + 127;
#X text 81 62 0 \, 2 are mapped to around 0 \, 255;
#X obj 72 245 -;
#X obj 253 125 loadbang;
#X msg 253 149 seed 1;
#X obj 95 173 random 64;
#X connect 0 0 4 0;
#X connect 1 0 2 1;
#X connect 2 0 3 0;
#X connect 4 0 2 0;
#X connect 4 1 5 0;
#X connect 5 0 7 0;
#X connect 7 0 9 0;
#X connect 7 1 15 0;
#X connect 7 2 8 1;
#X connect 8 0 12 1;
#X connect 9 0 12 0;
#X connect 10 0 3 0;
#X connect 12 0 10 0;
#X connect 13 0 14 0;
#X connect 14 0 15 0;
#X connect 15 0 8 0;
#X restore 156 273 pd col;
#X msg 195 209 seed \$1;
#X obj 54 104 t b b f;
#X obj 195 233 random 256;
#X msg 100 176 seed \$1;
#X obj 100 152 + 115249;
#X obj 100 128 / 3;
#X obj 54 53 inlet;
#X obj 54 369 pack f f f;
#X msg 54 437 color \$1 \$1;
#X obj 54 491 s \$0-canvas;
#X obj 54 307 + 255;
#X obj 105 307 + 255;
#X obj 156 307 + 255;
#X obj 54 331 / 2;
#X obj 105 331 / 2;
#X obj 156 331 / 2;
#X connect 0 0 15 0;
#X connect 1 0 2 0;
#X connect 2 0 3 0;
#X connect 3 0 4 0;
#X connect 3 1 5 0;
#X connect 3 2 6 0;
#X connect 4 0 17 0;
#X connect 5 0 18 0;
#X connect 6 0 19 0;
#X connect 7 0 9 0;
#X connect 8 0 1 0;
#X connect 8 1 9 0;
#X connect 8 2 7 0;
#X connect 8 2 12 0;
#X connect 9 0 6 1;
#X connect 9 0 5 1;
#X connect 9 0 4 1;
#X connect 10 0 2 0;
#X connect 11 0 10 0;
#X connect 12 0 11 0;
#X connect 13 0 8 0;
#X connect 14 0 0 0;
#X connect 15 0 16 0;
#X connect 17 0 20 0;
#X connect 18 0 21 0;
#X connect 19 0 22 0;
#X connect 20 0 14 0;
#X connect 21 0 14 1;
#X connect 22 0 14 2;
#X restore 410 266 pd setcolor;
#X obj 217 288 list prepend;
#X obj 217 312 list trim;
#X msg 250 377 symbol \$1-centerreceiver;
#X connect 0 0 20 0;
#X connect 3 0 4 0;
#X connect 3 1 5 0;
#X connect 4 0 6 0;
#X connect 5 0 7 0;
#X connect 6 0 22 0;
#X connect 7 0 6 0;
#X connect 7 1 6 1;
#X connect 8 0 14 0;
#X connect 9 0 11 0;
#X connect 10 0 9 0;
#X connect 11 0 13 0;
#X connect 12 0 21 0;
#X connect 13 0 12 0;
#X connect 13 0 22 1;
#X connect 14 0 17 1;
#X connect 14 0 3 0;
#X connect 15 0 16 0;
#X connect 15 1 16 1;
#X connect 16 0 15 0;
#X connect 16 1 17 0;
#X connect 17 0 16 2;
#X connect 17 1 14 0;
#X connect 19 0 24 0;
#X connect 20 0 8 0;
#X connect 20 1 19 0;
#X connect 20 2 10 0;
#X connect 22 0 23 0;
#X connect 23 0 1 0;
#X connect 24 0 1 1;
#X coords 0 -1 1 1 11 11 2 50 60;
