#N canvas 150 187 841 700 12;
#X obj 67 45 inlet;
#X obj 67 93 mtof;
#X obj 67 265 outlet~;
#X obj 67 69 unpack f f f f;
#X obj 238 109 noise~;
#X obj 119 177 *~;
#X obj 119 132 vline~;
#X obj 67 238 lop~;
#X obj 238 174 clip~ 0 1;
#X msg 119 108 \$1 1 \, 0 10 1;
#X obj 119 155 pow~ 2;
#X obj 238 142 *~ 10000;
#N canvas 966 279 633 590 karplus 1;
#X obj 61 51 inlet;
#X obj 65 226 clone karplus~ 16;
#X restore 74 372 pd karplus;
#X connect 0 0 3 0;
#X connect 3 0 1 0;
#X connect 3 1 9 0;
#X connect 3 3 7 1;
#X connect 4 0 11 0;
#X connect 6 0 10 0;
#X connect 7 0 2 0;
#X connect 8 0 5 1;
#X connect 9 0 6 0;
#X connect 10 0 5 0;
#X connect 11 0 8 0;
