#N canvas 150 187 450 300 12;
#X obj 67 45 inlet;
#X obj 67 93 mtof;
#X obj 67 265 outlet~;
#X obj 67 69 unpack f f f f;
#X obj 240 75 print;
#X obj 238 109 noise~;
#X obj 119 177 *~;
#X obj 119 132 vline~;
#X obj 67 238 lop~;
#X obj 67 211 else/pluck~ 50 300 10000;
#X obj 238 174 clip~ 0 1;
#X msg 119 108 \$1 1 \, 0 10 1;
#X obj 119 155 pow~ 2;
#X obj 238 142 *~ 10000;
#X connect 0 0 3 0;
#X connect 0 0 4 0;
#X connect 1 0 9 0;
#X connect 3 0 1 0;
#X connect 3 1 11 0;
#X connect 3 2 9 2;
#X connect 3 3 8 1;
#X connect 5 0 13 0;
#X connect 6 0 9 1;
#X connect 7 0 12 0;
#X connect 8 0 2 0;
#X connect 9 0 8 0;
#X connect 10 0 6 1;
#X connect 11 0 7 0;
#X connect 12 0 6 0;
#X connect 13 0 10 0;
