#N canvas 586 204 1023 642 12;
#X declare -lib iemguts;
#X obj 319 52 inlet;
#X obj 370 573 outlet;
#X obj 319 281 dist2d;
#N canvas 438 73 420 659 bangcolor 0;
#X obj 54 483 rgb2hex;
#X obj 54 591 outlet;
#X msg 231 537 flashtime 1000 1000;
#X obj 231 513 loadbang;
#X msg 154 172 0 1 2;
#X obj 154 229 shuffle;
#X obj 154 253 unpack f f f;
#N canvas 151 471 450 387 col 0;
#X obj 40 36 inlet;
#X obj 151 36 inlet;
#X obj 40 125 f;
#X obj 40 317 outlet;
#X obj 40 61 sel 1;
#X obj 72 125 - 1;
#X text 100 126 values of -1 or 1;
#X obj 72 149 t f b f;
#X obj 95 197 *;
#X obj 72 221 * 127;
#X obj 72 269 + 127;
#X text 81 62 0 \, 2 are mapped to around 0 \, 255;
#X obj 95 173 random 64;
#X obj 72 245 -;
#X obj 253 125 loadbang;
#X msg 253 149 seed 1;
#X connect 0 0 4 0;
#X connect 1 0 2 1;
#X connect 2 0 3 0;
#X connect 4 0 2 0;
#X connect 4 1 5 0;
#X connect 5 0 7 0;
#X connect 7 0 9 0;
#X connect 7 1 12 0;
#X connect 7 2 8 1;
#X connect 8 0 13 1;
#X connect 9 0 13 0;
#X connect 10 0 3 0;
#X connect 12 0 8 0;
#X connect 13 0 10 0;
#X connect 14 0 15 0;
#X connect 15 0 12 0;
#X restore 154 293 pd col;
#N canvas 149 470 451 383 col 0;
#X obj 40 36 inlet;
#X obj 151 36 inlet;
#X obj 40 125 f;
#X obj 40 317 outlet;
#X obj 40 61 sel 1;
#X obj 72 125 - 1;
#X text 100 126 values of -1 or 1;
#X obj 72 149 t f b f;
#X obj 95 197 *;
#X obj 72 221 * 127;
#X obj 72 269 + 127;
#X text 81 62 0 \, 2 are mapped to around 0 \, 255;
#X obj 95 173 random 64;
#X obj 72 245 -;
#X obj 253 125 loadbang;
#X msg 253 149 seed 1;
#X connect 0 0 4 0;
#X connect 1 0 2 1;
#X connect 2 0 3 0;
#X connect 4 0 2 0;
#X connect 4 1 5 0;
#X connect 5 0 7 0;
#X connect 7 0 9 0;
#X connect 7 1 12 0;
#X connect 7 2 8 1;
#X connect 8 0 13 1;
#X connect 9 0 13 0;
#X connect 10 0 3 0;
#X connect 12 0 8 0;
#X connect 13 0 10 0;
#X connect 14 0 15 0;
#X connect 15 0 12 0;
#X restore 205 293 pd col;
#N canvas 151 466 396 431 col 0;
#X obj 40 36 inlet;
#X obj 151 36 inlet;
#X obj 40 125 f;
#X obj 40 317 outlet;
#X obj 40 61 sel 1;
#X obj 72 125 - 1;
#X text 100 126 values of -1 or 1;
#X obj 72 149 t f b f;
#X obj 95 197 *;
#X obj 72 221 * 127;
#X obj 72 269 + 127;
#X text 81 62 0 \, 2 are mapped to around 0 \, 255;
#X obj 72 245 -;
#X obj 253 125 loadbang;
#X msg 253 149 seed 1;
#X obj 95 173 random 64;
#X connect 0 0 4 0;
#X connect 1 0 2 1;
#X connect 2 0 3 0;
#X connect 4 0 2 0;
#X connect 4 1 5 0;
#X connect 5 0 7 0;
#X connect 7 0 9 0;
#X connect 7 1 15 0;
#X connect 7 2 8 1;
#X connect 8 0 12 1;
#X connect 9 0 12 0;
#X connect 10 0 3 0;
#X connect 12 0 10 0;
#X connect 13 0 14 0;
#X connect 14 0 15 0;
#X connect 15 0 8 0;
#X restore 256 293 pd col;
#X msg 295 229 seed \$1;
#X obj 154 124 t b b f;
#X obj 295 253 random 256;
#X msg 200 196 seed \$1;
#X obj 200 172 + 115249;
#X obj 200 148 / 3;
#X obj 122 46 inlet;
#X obj 54 459 pack f f f;
#X obj 122 100 t b f;
#X obj 54 46 inlet;
#X obj 54 277 t f f f;
#X obj 256 317 * -1;
#X obj 256 341 + 255;
#X obj 205 317 * -1;
#X obj 205 341 + 255;
#X obj 154 317 * -1;
#X obj 154 341 + 255;
#X obj 54 396 * 255;
#X obj 105 396 * 255;
#X obj 156 396 * 255;
#X obj 54 420 +;
#X obj 105 420 +;
#X obj 156 420 +;
#X obj 54 253 f 0;
#X floatatom 256 365 5 0 0 0 - - - 0;
#X floatatom 205 365 5 0 0 0 - - - 0;
#X floatatom 154 365 5 0 0 0 - - - 0;
#X msg 54 537 color \$1 \$1;
#X connect 0 0 37 0;
#X connect 2 0 1 0;
#X connect 3 0 2 0;
#X connect 4 0 5 0;
#X connect 5 0 6 0;
#X connect 6 0 7 0;
#X connect 6 1 8 0;
#X connect 6 2 9 0;
#X connect 7 0 25 0;
#X connect 7 0 30 1;
#X connect 8 0 23 0;
#X connect 8 0 31 1;
#X connect 9 0 21 0;
#X connect 9 0 32 1;
#X connect 10 0 12 0;
#X connect 11 0 4 0;
#X connect 11 1 12 0;
#X connect 11 2 10 0;
#X connect 11 2 15 0;
#X connect 12 0 9 1;
#X connect 12 0 8 1;
#X connect 12 0 7 1;
#X connect 13 0 5 0;
#X connect 14 0 13 0;
#X connect 15 0 14 0;
#X connect 16 0 18 0;
#X connect 17 0 0 0;
#X connect 18 0 33 0;
#X connect 18 1 11 0;
#X connect 19 0 33 0;
#X connect 20 0 27 0;
#X connect 20 1 28 0;
#X connect 20 2 29 0;
#X connect 21 0 22 0;
#X connect 22 0 29 1;
#X connect 22 0 34 0;
#X connect 23 0 24 0;
#X connect 24 0 28 1;
#X connect 24 0 35 0;
#X connect 25 0 26 0;
#X connect 26 0 27 1;
#X connect 26 0 36 0;
#X connect 27 0 30 0;
#X connect 28 0 31 0;
#X connect 29 0 32 0;
#X connect 30 0 17 0;
#X connect 31 0 17 1;
#X connect 32 0 17 2;
#X connect 33 0 20 0;
#X connect 37 0 1 0;
#X restore 60 76 pd bangcolor;
#X obj 319 153 t l b;
#X obj 319 124 route list bang;
#X obj 718 358 loadbang;
#X obj 472 573 s;
#X obj 67 439 t b b;
#N canvas 450 231 572 169 create_receiver_bridge 0;
#X obj 37 37 inlet;
#X obj 37 102 s pd-\$0-receiver-bridge;
#X msg 37 70 clear \, obj 60 60 r \$1-nodes \, obj 60 100 s \\\$0-node \, connect 0 0 1 0, f 67;
#X connect 0 0 2 0;
#X connect 2 0 1 0;
#X restore 725 434 pd create_receiver_bridge;
#N canvas 331 296 447 190 \$0-receiver-bridge 0;
#X obj 60 60 r 1050-nodes;
#X obj 60 100 s \$0-node;
#X connect 0 0 1 0;
#X restore 725 458 pd \$0-receiver-bridge;
#X obj 319 100 spigot;
#X obj 402 201 iemguts/canvasposition;
#X obj 783 358 declare -lib iemguts;
#X obj 236 177 savestate;
#X obj 236 201 manage_childpreset;
#X obj 380 201 preset/preset_to_parent;
#X obj 60 100 bng 11 1000 1000 0 \$0__s \$0__r empty 0 -10 0 12 #000000 #000000 #000000;
#X obj 370 439 list, f 5;
#X obj 370 153 t b b;
#X obj 319 257 t l l, f 34;
#X obj 472 482 list prepend;
#X obj 472 458 list append, f 12;
#X obj 689 153 s \$0-cooldown;
#N canvas 178 401 450 444 cooldown 0;
#X obj 157 82 r \$0-cooldown;
#X obj 42 34 inlet;
#X obj 43 271 outlet;
#X obj 96 175 del 0;
#X msg 130 199 0;
#X msg 96 199 1;
#X obj 42 82 t b b a;
#X obj 43 223 spigot 1;
#X connect 0 0 3 1;
#X connect 1 0 6 0;
#X connect 3 0 5 0;
#X connect 4 0 7 1;
#X connect 5 0 7 1;
#X connect 6 0 3 0;
#X connect 6 1 4 0;
#X connect 6 2 7 0;
#X connect 7 0 2 0;
#X restore 319 76 pd cooldown;
#X obj 319 329 / 1;
#X obj 319 305 * 1000;
#X obj 472 530 list trim;
#X obj 383 353 sel 0;
#X msg 383 377 clear;
#X obj 319 372 t f f;
#X obj 319 420 b;
#X obj 319 396 pipe;
#X obj 578 401 pdcontrol;
#X msg 578 377 args;
#X obj 67 463 del 40;
#X msg 60 197 1, f 1;
#X obj 60 234 change;
#X obj 60 258 sel 0 1;
#X obj 83 306 del 1000;
#X text 108 233 mouse down/up;
#X text 146 306 longpress detection;
#X text 232 219 get/set id from preset object;
#X msg 105 329 1, f 1;
#X msg 83 329 0, f 1;
#X obj 60 353 spigot;
#X text 114 464 black for 40ms;
#X msg 134 372 1, f 1;
#X obj 383 329 r \$0-flow;
#X obj 586 201 s \$0-flow;
#X obj 405 81 r \$0-flow;
#X obj 134 396 s \$0-flow;
#X msg 150 372 0, f 1;
#X obj 83 282 t b b b b, f 10;
#X obj 586 52 r \$0-node;
#X text 838 119 receive parent's nodes-messages, f 16;
#X obj 637 177 s \$0-speed;
#X obj 383 305 r \$0-speed;
#X obj 60 52 r \$0-fadecolor;
#X obj 60 535 s \$0-fadecolor;
#X obj 60 511 line 0 10;
#X msg 60 487 1 \, 0 120;
#X msg 127 487 1, f 1;
#X obj 578 458 route symbol float;
#X obj 657 482 s \$0-preset-id;
#X obj 418 153 r \$0-preset-id;
#X obj 578 434 list_iterate;
#X obj 586 76 route all;
#X obj 585 482 s \$0-name;
#X obj 167 52 r \$0-name;
#X obj 167 76 checksum;
#X obj 658 52 r \$0-name;
#X text 656 77 FIXME: remove fallback connection?;
#X obj 718 410 iemguts/canvasdollarzero 1;
#X obj 78 173 route mouseup;
#X msg 78 197 0, f 1;
#X obj 78 149 iemguts/receivecanvas 1;
#X obj 380 234 print id;
#X msg 718 554 symbol \$1-nodereceiver;
#X obj 472 506 list prepend;
#X obj 586 129 route flow speed cooldown bang;
#X connect 0 0 24 0;
#X connect 2 0 26 0;
#X connect 3 0 17 0;
#X connect 4 0 20 0;
#X connect 4 1 12 0;
#X connect 5 0 4 0;
#X connect 5 1 19 0;
#X connect 6 0 34 0;
#X connect 6 0 73 0;
#X connect 8 0 35 0;
#X connect 8 1 62 0;
#X connect 11 0 5 0;
#X connect 12 0 18 1;
#X connect 12 0 2 1;
#X connect 12 0 16 1;
#X connect 14 0 15 0;
#X connect 14 1 15 1;
#X connect 15 0 14 0;
#X connect 15 1 16 0;
#X connect 16 0 15 2;
#X connect 16 0 21 1;
#X connect 16 0 77 0;
#X connect 16 1 12 0;
#X connect 17 0 36 0;
#X connect 18 0 1 0;
#X connect 18 0 22 0;
#X connect 19 0 18 0;
#X connect 19 1 12 0;
#X connect 20 0 2 0;
#X connect 20 1 22 1;
#X connect 21 0 79 0;
#X connect 22 0 21 0;
#X connect 24 0 11 0;
#X connect 25 0 30 0;
#X connect 26 0 25 0;
#X connect 27 0 7 0;
#X connect 28 0 29 0;
#X connect 29 0 32 0;
#X connect 30 0 32 0;
#X connect 30 1 32 1;
#X connect 31 0 18 0;
#X connect 31 0 8 0;
#X connect 32 0 31 0;
#X connect 33 0 66 0;
#X connect 34 0 33 0;
#X connect 35 0 61 0;
#X connect 36 0 37 0;
#X connect 37 0 38 0;
#X connect 38 0 45 0;
#X connect 38 1 53 0;
#X connect 39 0 44 0;
#X connect 43 0 45 1;
#X connect 44 0 45 1;
#X connect 45 0 47 0;
#X connect 45 0 19 0;
#X connect 45 0 61 0;
#X connect 47 0 51 0;
#X connect 48 0 28 0;
#X connect 50 0 11 1;
#X connect 52 0 51 0;
#X connect 53 0 39 0;
#X connect 53 1 43 0;
#X connect 53 2 62 0;
#X connect 53 3 52 0;
#X connect 54 0 67 0;
#X connect 57 0 25 1;
#X connect 58 0 3 0;
#X connect 60 0 59 0;
#X connect 61 0 60 0;
#X connect 62 0 59 0;
#X connect 63 0 68 0;
#X connect 63 0 79 1;
#X connect 63 1 64 0;
#X connect 65 0 16 0;
#X connect 66 0 63 0;
#X connect 67 0 80 0;
#X connect 67 1 80 0;
#X connect 69 0 70 0;
#X connect 70 0 3 1;
#X connect 71 0 67 1;
#X connect 73 0 9 0;
#X connect 73 0 78 0;
#X connect 74 0 75 0;
#X connect 75 0 37 0;
#X connect 76 0 74 0;
#X connect 78 0 7 1;
#X connect 79 0 27 0;
#X connect 80 0 49 0;
#X connect 80 1 56 0;
#X connect 80 2 23 0;
#X connect 80 3 1 0;
#X coords 0 -1 1 1 11 11 2 60 100;
