#N canvas 210 77 1254 758 12;
#X declare -path else;
#X obj 316 703 s \$0-nodes;
#X obj 316 655 tgl 19 1 empty empty empty 24 10 0 12 #fcfcfc #000000 #000000 1 1;
#X obj 383 631 hsl 97 19 10 10000 1 1 empty empty empty -2 -10 0 12 #fcfcfc #000000 #000000 3871 1;
#X msg 380 679 speed \$1;
#X obj 39 36 r \$0-nodes;
#X obj 39 60 print;
#X text 118 35 <-- receiver that's included in all nodes;
#X obj 628 703 presetter;
#A saved 0 850776 568 421 \; 0 20004 568 491 \; 0 918003 638 491 \; 0 330335 638 421 \; 0 324865 588 381 \; 0 406003 588 401 \; 0 208259 608 401 \; 0 261918 608 381 \; 0 842293 551 254 \; 0 603236 597 254 \; 0 143464 640 253 \; 0 777756 597 346 \; 1 850776 549 442 \; 1 20004 503 334 \; 1 918003 696 346 \; 1 330335 648 446 \; 1 324865 588 451 \; 1 406003 568 473 \; 1 208259 633 471 \; 1 261918 608 451 \; 1 842293 572 330 \; 1 603236 599 373 \; 1 143464 624 331 \; 1 777756 597 346 \;;
#X obj 628 679 hradio 19 1 0 8 empty empty empty 0 -10 0 12 #fcfcfc #000000 #000000 0;
#X msg 628 655 store;
#X msg 992 684 easemode out-elastic;
#X msg 785 684 clear;
#X obj 493 631 hsl 97 19 1 1000 1 1 empty empty empty -2 -10 0 12 #fcfcfc #000000 #000000 3406 1;
#X msg 490 679 cooldown \$1;
#N canvas 609 111 748 614 playnode 0;
#X obj 37 37 inlet;
#X obj 158 298 clip 0 1;
#X obj 158 250 dist2d;
#X obj 90 188 pack;
#X obj 197 188 pack;
#X obj 90 250 angle2d;
#X obj 37 147 unpack f f f 0 0, f 31;
#X obj 90 274 / 3.14159;
#X obj 158 322 * -1;
#X obj 158 346 + 1;
#X obj 158 274 * 0.002;
#X obj 90 212 t l l;
#X obj 90 298 * 24;
#X obj 90 322 + 70;
#X text 82 38 incoming messages have structure name \, id \, pos_x \, pos_y \, from_pos_x \, from_pos_y, f 79;
#X text 125 187 pos;
#X text 233 187 from_pos;
#X obj 90 462 clone pluck.cl 32;
#X obj 90 438 list trim;
#X obj 90 414 list prepend next;
#X obj 90 561 dac~ 1 2;
#X obj 143 497 *~ -1;
#X obj 418 298 clip 0 1;
#X obj 418 250 dist2d;
#X obj 350 188 pack;
#X obj 457 188 pack;
#X obj 350 250 angle2d;
#X obj 297 147 unpack f f f 0 0, f 31;
#X obj 350 274 / 3.14159;
#X obj 418 322 * -1;
#X obj 418 346 + 1;
#X obj 418 274 * 0.002;
#X obj 350 212 t l l;
#X text 385 187 pos;
#X text 493 187 from_pos;
#X obj 37 70 route node differentsound;
#X obj 110 526 rev3~ 100 76 200 100;
#X obj 228 70 route center;
#X obj 228 94 print;
#X obj 350 298 * 8;
#X obj 380 69 declare -path else;
#X obj 350 383 pack f f 300 1000;
#X obj 350 322 + 30;
#X obj 90 383 pack f f 40 5000;
#X connect 0 0 35 0;
#X connect 1 0 8 0;
#X connect 2 0 10 0;
#X connect 3 0 11 0;
#X connect 4 0 2 1;
#X connect 5 0 7 0;
#X connect 6 1 3 0;
#X connect 6 2 3 1;
#X connect 6 3 4 0;
#X connect 6 4 4 1;
#X connect 7 0 12 0;
#X connect 8 0 9 0;
#X connect 9 0 43 1;
#X connect 10 0 1 0;
#X connect 11 0 5 0;
#X connect 11 1 2 0;
#X connect 12 0 13 0;
#X connect 13 0 43 0;
#X connect 17 0 21 0;
#X connect 17 0 20 0;
#X connect 17 0 36 0;
#X connect 18 0 17 0;
#X connect 19 0 18 0;
#X connect 21 0 20 1;
#X connect 21 0 36 1;
#X connect 22 0 29 0;
#X connect 23 0 31 0;
#X connect 24 0 32 0;
#X connect 25 0 23 1;
#X connect 26 0 28 0;
#X connect 27 1 24 0;
#X connect 27 2 24 1;
#X connect 27 3 25 0;
#X connect 27 4 25 1;
#X connect 28 0 39 0;
#X connect 29 0 30 0;
#X connect 30 0 41 1;
#X connect 31 0 22 0;
#X connect 32 0 26 0;
#X connect 32 1 23 0;
#X connect 35 0 6 0;
#X connect 35 1 27 0;
#X connect 35 2 37 0;
#X connect 36 0 20 0;
#X connect 36 1 20 1;
#X connect 37 0 5 1;
#X connect 37 0 26 1;
#X connect 37 0 38 0;
#X connect 39 0 42 0;
#X connect 41 0 19 0;
#X connect 42 0 41 0;
#X connect 43 0 19 0;
#X restore 39 703 pd playnode;
#X msg 316 679 flow \$1;
#X floatatom 380 655 5 0 0 1 px/s - - 0;
#X floatatom 490 655 5 0 0 1 ms - - 0;
#X msg 885 684 easetime 5000;
#X obj 885 655 loadbang;
#X obj 568 421 triggernode;
#A saved savestate_child 850776;
#X obj 568 491 triggernode;
#A saved savestate_child 20004;
#X obj 638 491 triggernode;
#A saved savestate_child 918003;
#X obj 638 421 triggernode;
#A saved savestate_child 330335;
#X obj 588 381 triggernode;
#A saved savestate_child 324865;
#X obj 588 401 triggernode;
#A saved savestate_child 406003;
#X obj 608 401 triggernode;
#A saved savestate_child 208259;
#X obj 608 381 triggernode;
#A saved savestate_child 261918;
#X text 152 654 enable signal flow -->;
#X obj 39 679 r \$0-nodereceiver;
#X text 122 703 <-- play node signals;
#X msg 835 684 click;
#X obj 551 254 triggernode differentsound;
#A saved savestate_child 842293;
#X obj 597 254 triggernode differentsound;
#A saved savestate_child 603236;
#X obj 640 253 triggernode differentsound;
#A saved savestate_child 143464;
#X obj 806 94 bng 19 250 50 0 empty empty empty 0 -10 0 12 #fcfcfc #000000 #000000;
#X text 657 248 longpress on node to stop flow at node;
#X obj 597 346 center;
#A saved savestate_child 777756;
#X obj 992 655 ease;
#X text 1028 654 <-- check for ease modes;
#X text 674 654 presets;
#X text 831 94 <-- start here or bang nodes directly;
#X connect 1 0 15 0;
#X connect 2 0 16 0;
#X connect 3 0 0 0;
#X connect 4 0 5 0;
#X connect 8 0 7 0;
#X connect 9 0 7 0;
#X connect 10 0 7 0;
#X connect 11 0 7 0;
#X connect 12 0 17 0;
#X connect 13 0 0 0;
#X connect 15 0 0 0;
#X connect 16 0 3 0;
#X connect 17 0 13 0;
#X connect 18 0 7 0;
#X connect 19 0 18 0;
#X connect 19 0 10 0;
#X connect 20 0 21 0;
#X connect 21 0 22 0;
#X connect 22 0 23 0;
#X connect 23 0 20 0;
#X connect 23 0 26 0;
#X connect 24 0 25 0;
#X connect 26 0 27 0;
#X connect 27 0 24 0;
#X connect 29 0 14 0;
#X connect 31 0 7 0;
#X connect 32 0 33 0;
#X connect 33 0 34 0;
#X connect 34 0 32 0;
#X connect 35 0 34 0;
#X connect 35 0 23 0;
