#N canvas 191 179 1170 708 12;
#X declare -lib iemguts;
#X obj 190 76 inlet;
#X obj 241 634 outlet;
#X obj 190 379 dist2d;
#N canvas 855 188 450 386 bangcolor 0;
#X obj 60 219 rgb2hex;
#X obj 60 165 pack f f f;
#X obj 60 141 t f f f, f 10;
#X obj 60 63 inlet;
#X obj 60 87 * 255;
#X obj 60 307 outlet;
#X msg 60 283 color \$1;
#X connect 0 0 6 0;
#X connect 1 0 0 0;
#X connect 2 0 1 0;
#X connect 2 1 1 1;
#X connect 2 2 1 2;
#X connect 3 0 4 0;
#X connect 4 0 2 0;
#X connect 6 0 5 0;
#X restore 61 76 pd bangcolor;
#X obj 190 166 t l b;
#X obj 241 529 list, f 5;
#X obj 241 166 t b b;
#X obj 190 124 route list bang;
#X obj 190 486 pipe;
#X obj 190 510 b;
#X obj 61 52 r \$0-color;
#X obj 856 548 else/dollsym 1 \\\$0-compreceiver;
#X obj 856 52 loadbang;
#X obj 838 634 s;
#X msg 133 577 0;
#X obj 61 529 t b b;
#X obj 61 634 s \$0-color;
#X obj 876 85 else/dollsym 1 \\\$0-nodes;
#N canvas 450 231 596 169 create_receiver_bridge 0;
#X obj 37 37 inlet;
#X obj 37 102 s pd-\$0-receiver-bridge;
#X msg 37 70 clear \, obj 60 60 r \$1 \, obj 60 100 s \\\$0-r \, connect 0 0 1 0, f 71;
#X connect 0 0 2 0;
#X connect 2 0 1 0;
#X restore 876 109 pd create_receiver_bridge;
#N canvas 331 296 447 190 \$0-receiver-bridge 0;
#X obj 60 60 r 1946-nodes;
#X obj 60 100 s \$0-r;
#X connect 0 0 1 0;
#X restore 876 133 pd \$0-receiver-bridge;
#X obj 397 57 r \$0-r;
#X obj 61 553 del 20;
#X msg 61 577 0 \, 1 100;
#X obj 61 601 line;
#X obj 190 409 t f f;
#X obj 316 548 pack f f f;
#X obj 273 234 unpack;
#X obj 273 335 pack;
#X obj 190 100 spigot;
#X obj 273 311 -;
#X obj 312 311 -;
#X obj 440 210 unpack;
#X obj 190 438 * 10;
#X obj 273 210 iemguts/canvasposition;
#X obj 921 52 declare -lib iemguts;
#X obj 190 462 t b f;
#X obj 92 187 savestate;
#X obj 92 210 manage_childpreset;
#X obj 229 210 preset/preset_to_parent;
#X obj 250 210 bng 19 250 50 0 empty empty empty 0 -10 0 12 #ffffff #000000 #000000;
#X obj 159 247 print node-id;
#X obj 397 81 route flow speed center;
#X connect 0 0 28 0;
#X connect 2 0 24 0;
#X connect 3 0 39 0;
#X connect 4 0 2 0;
#X connect 4 1 33 0;
#X connect 5 0 25 0;
#X connect 5 0 1 0;
#X connect 6 0 5 0;
#X connect 6 1 33 0;
#X connect 7 0 4 0;
#X connect 7 1 6 0;
#X connect 8 0 9 0;
#X connect 9 0 5 0;
#X connect 9 0 15 0;
#X connect 10 0 3 0;
#X connect 11 0 13 1;
#X connect 12 0 11 0;
#X connect 12 0 17 0;
#X connect 14 0 16 0;
#X connect 15 0 21 0;
#X connect 15 1 14 0;
#X connect 17 0 18 0;
#X connect 20 0 41 0;
#X connect 21 0 22 0;
#X connect 22 0 23 0;
#X connect 23 0 16 0;
#X connect 24 0 32 0;
#X connect 24 1 25 2;
#X connect 25 0 13 0;
#X connect 26 0 29 0;
#X connect 26 1 30 0;
#X connect 27 0 5 1;
#X connect 27 0 2 1;
#X connect 28 0 7 0;
#X connect 29 0 27 0;
#X connect 30 0 27 1;
#X connect 31 0 29 1;
#X connect 31 1 30 1;
#X connect 32 0 35 0;
#X connect 33 0 26 0;
#X connect 33 0 38 1;
#X connect 35 0 8 0;
#X connect 35 1 8 1;
#X connect 36 0 37 0;
#X connect 36 1 37 1;
#X connect 37 0 36 0;
#X connect 37 1 38 0;
#X connect 38 0 40 0;
#X connect 38 0 37 2;
#X connect 38 1 33 0;
#X connect 39 0 6 0;
#X connect 39 0 15 0;
#X connect 41 0 28 1;
#X connect 41 1 32 1;
#X connect 41 2 31 0;
#X coords 0 -1 1 1 19 19 2 250 210;
