#N canvas 471 201 450 300 12;
#X obj 56 45 inlet;
#X obj 56 99 unpack;
#X obj 250 45 inlet;
#X obj 250 99 unpack;
#X obj 56 163 expr sqrt(pow($f3-$f1 \, 2)+pow($f4-$f2 \, 2));
#X obj 56 227 outlet;
#X connect 0 0 1 0;
#X connect 1 0 4 0;
#X connect 1 1 4 1;
#X connect 2 0 3 0;
#X connect 3 0 4 2;
#X connect 3 1 4 3;
#X connect 4 0 5 0;
