#N canvas 225 79 657 409 12;
#X obj 279 178 list;
#X msg 304 154 savestate_child \$1;
#X obj 67 116 route savestate_child;
#X obj 67 92 list trim;
#X obj 435 217 loadbang;
#X obj 67 56 inlet;
#X obj 279 56 inlet;
#X obj 279 319 outlet;
#X text 281 298 savestate savecontent;
#X text 66 36 savestate loadvalues;
#X obj 456 56 inlet;
#X obj 456 318 outlet;
#X obj 435 241 spigot 1;
#X obj 456 135 t f b;
#X msg 488 158 0;
#X text 279 36 savestate savebang;
#X text 456 36 id from child_object;
#X text 465 296 id to child_object;
#X connect 0 0 7 0;
#X connect 1 0 0 1;
#X connect 2 0 13 0;
#X connect 3 0 2 0;
#X connect 4 0 12 0;
#X connect 5 0 3 0;
#X connect 6 0 0 0;
#X connect 10 0 1 0;
#X connect 12 0 11 0;
#X connect 13 0 1 0;
#X connect 13 0 11 0;
#X connect 13 1 14 0;
#X connect 14 0 12 1;
