#N canvas 287 37 718 513 12;
#X obj 46 43 inlet;
#X obj 595 155 list length;
#X obj 491 136 t b l l;
#X obj 405 294 line_eased;
#X obj 595 179 - 1;
#X obj 514 203 list split, f 12;
#X obj 554 227 route float;
#X msg 298 275 easemode \$1;
#X obj 298 251 symbol;
#X msg 405 227 set 0 \, 1;
#X obj 298 379 edgefade;
#X obj 405 398 list_interpolate;
#X obj 405 447 outlet;
#X obj 46 136 s \$0-morph;
#X obj 125 136 s \$0-easemode;
#X obj 224 136 s \$0-grain;
#X obj 298 355 r \$0-morph;
#X obj 298 227 r \$0-easemode;
#X obj 554 275 r \$0-grain;
#X obj 402 136 t b l;
#X obj 402 160 s \$0-morphbang;
#X obj 298 331 r \$0-morphbang;
#X obj 46 92 route morph easemode grain set target, f 64;
#X text 406 117 target;
#X text 496 117 direct list input;
#X text 327 117 set;
#X connect 0 0 22 0;
#X connect 1 0 4 0;
#X connect 2 0 9 0;
#X connect 2 1 5 0;
#X connect 2 2 1 0;
#X connect 3 0 11 0;
#X connect 4 0 5 1;
#X connect 5 0 11 2;
#X connect 5 1 6 0;
#X connect 6 0 3 1;
#X connect 7 0 3 0;
#X connect 8 0 7 0;
#X connect 9 0 3 0;
#X connect 10 0 11 0;
#X connect 11 0 12 0;
#X connect 16 0 10 0;
#X connect 17 0 8 0;
#X connect 18 0 3 2;
#X connect 19 0 20 0;
#X connect 19 1 11 2;
#X connect 21 0 10 0;
#X connect 22 0 13 0;
#X connect 22 1 14 0;
#X connect 22 2 15 0;
#X connect 22 3 11 1;
#X connect 22 4 19 0;
#X connect 22 5 2 0;
