#N canvas 471 201 244 296 12;
#X obj 56 45 inlet;
#X obj 56 93 unpack;
#X obj 130 45 inlet;
#X obj 130 93 unpack;
#X obj 56 227 outlet;
#X obj 56 179 atan2;
#X obj 56 155 -;
#X obj 95 156 -;
#X connect 0 0 1 0;
#X connect 1 0 6 0;
#X connect 1 1 7 0;
#X connect 2 0 3 0;
#X connect 3 0 6 1;
#X connect 3 1 7 1;
#X connect 5 0 4 0;
#X connect 6 0 5 0;
#X connect 7 0 5 1;
