#N canvas 524 -808 390 325 12;
#X obj 45 85 list split 1;
#X obj 45 37 inlet;
#X obj 77 178 outlet;
#X obj 60 109 list;
#X obj 45 133 t b l;
#X connect 0 0 4 0;
#X connect 0 1 3 1;
#X connect 1 0 0 0;
#X connect 3 0 0 0;
#X connect 4 0 3 0;
#X connect 4 1 2 0;
