#N canvas 135 224 607 667 12;
#X obj 54 49 inlet;
#X obj 151 370 +;
#X obj 182 370 f;
#X obj 151 397 t f f;
#X obj 194 416 +;
#X obj 225 416 f;
#X msg 169 328 1;
#X obj 119 256 t l b b;
#X msg 212 328 0;
#X obj 119 280 list split 1;
#X obj 134 304 list;
#X obj 119 328 t b l;
#X obj 54 94 t b a;
#X obj 54 471 f;
#X obj 54 543 +;
#X obj 54 591 outlet;
#X obj 54 447 t b b;
#X obj 133 471 f;
#X obj 133 495 mod 65521;
#X text 261 47 simple checksum algorithm;
#X text 261 82 see https://en.wikipedia.org/wiki/Adler-32;
#X text 438 594 Ben Wesch \, 2023;
#X text 211 281 iterate list;
#X obj 54 519 << 16;
#X text 260 119 checksum exceeds integer range for proper float32 representation (2^24+1) though. see https://stackoverflow.com/a/3793950, f 41;
#X obj 86 208 fudiformat -u;
#X obj 86 176 t a b;
#X msg 186 208 6;
#X obj 130 176 t a b;
#X msg 218 208 0;
#X obj 86 232 list split;
#X obj 86 142 route float;
#X obj 86 118 list trim;
#X obj 54 495 mod 251;
#X text 204 495 <-- changed modulo to stay in 2^24 range;
#X connect 0 0 12 0;
#X connect 1 0 2 0;
#X connect 1 0 3 0;
#X connect 2 0 1 1;
#X connect 3 0 17 1;
#X connect 3 1 4 0;
#X connect 4 0 5 0;
#X connect 4 0 13 1;
#X connect 5 0 4 1;
#X connect 6 0 1 1;
#X connect 7 0 9 0;
#X connect 7 1 6 0;
#X connect 7 2 8 0;
#X connect 8 0 4 1;
#X connect 9 0 11 0;
#X connect 9 1 10 1;
#X connect 10 0 9 0;
#X connect 11 0 10 0;
#X connect 11 1 1 0;
#X connect 12 0 16 0;
#X connect 12 1 32 0;
#X connect 13 0 33 0;
#X connect 14 0 15 0;
#X connect 16 0 13 0;
#X connect 16 1 17 0;
#X connect 17 0 18 0;
#X connect 18 0 14 1;
#X connect 23 0 14 0;
#X connect 25 0 30 0;
#X connect 26 0 25 0;
#X connect 26 1 27 0;
#X connect 27 0 30 1;
#X connect 28 0 25 0;
#X connect 28 1 29 0;
#X connect 29 0 30 1;
#X connect 30 1 7 0;
#X connect 31 0 26 0;
#X connect 31 1 28 0;
#X connect 32 0 31 0;
#X connect 33 0 23 0;
